<svg xmlns="http://www.w3.org/2000/svg" viewBox="0 0 220 120"><rect width="220" height="120" rx="30" fill="#fff5e8"/><ellipse cx="110" cy="60" rx="92" ry="50" fill="#f7f4ec"/><path d="M28 44c36-28 84-27 113 5-11 42-83 55-119 19-9-9-5-17 6-24z" fill="#54291b"/><circle cx="55" cy="59" r="9" fill="#7b3d22"/><circle cx="85" cy="70" r="8" fill="#7b3d22"/><circle cx="113" cy="52" r="7" fill="#7b3d22"/><path d="M142 25c30 3 47 18 50 43-24 7-52 3-74-11z" fill="#fff"/><path d="M126 77c26-9 51-7 75 9-25 18-58 19-83 4z" fill="#f3c451"/></svg>
